<svg width="1920" height="159" viewBox="0 0 1920 159" fill="none" xmlns="http://www.w3.org/2000/svg">
<path d="M0 0V159H1920V0C1920 0 1869.04 106.836 1820.22 106.836C1771.4 106.836 1757.99 36.1136 1705.95 36.1136C1653.91 36.1136 1510.14 130.41 1445.77 124.893C1381.39 119.375 1363.69 72.7287 1306.82 72.7287C1249.96 72.7287 1102.97 106.836 1039.13 106.836C975.289 106.836 932.909 36.1136 856.731 36.1136C780.553 36.1136 677.016 72.7287 603.521 72.7287C530.025 72.7287 479.598 36.1136 401.811 36.1136C324.023 36.1136 223.168 80.7539 170.595 72.7287C118.022 64.7035 47.2087 23.4069 0 0Z" fill="#38B6FF"/>
</svg>
