<svg width="1920" height="159" viewBox="0 0 1920 159" fill="none" xmlns="http://www.w3.org/2000/svg">
<path d="M0 159V1.52588e-05H1920V159C1920 159 1869.04 52.164 1820.22 52.164C1771.4 52.164 1757.99 122.886 1705.95 122.886C1653.91 122.886 1510.14 28.5899 1445.77 34.1073C1381.39 39.6246 1363.69 86.2713 1306.82 86.2713C1249.96 86.2713 1102.97 52.164 1039.13 52.164C975.289 52.164 932.909 122.886 856.731 122.886C780.553 122.886 677.016 86.2713 603.521 86.2713C530.025 86.2713 479.598 122.886 401.811 122.886C324.023 122.886 223.168 78.2461 170.595 86.2713C118.022 94.2965 47.2087 135.593 0 159Z" fill="#38B6FF"/>
</svg>
